<?xml version="1.0" standalone="no"?>
<!DOCTYPE svg PUBLIC "-//W3C//DTD SVG 20010904//EN"
 "http://www.w3.org/TR/2001/REC-SVG-20010904/DTD/svg10.dtd">
<svg version="1.0" xmlns="http://www.w3.org/2000/svg"
 width="512.000000pt" height="81.000000pt" viewBox="0 0 512.000000 81.000000"
 preserveAspectRatio="xMidYMid meet">
<metadata>
Created by potrace 1.16, written by Peter Selinger 2001-2019
</metadata>
<g transform="translate(0.000000,81.000000) scale(0.100000,-0.100000)"
fill="#000000" stroke="none">
<path d="M420 780 c-18 -18 -20 -33 -20 -160 l0 -140 -180 0 c-239 0 -220 20
-220 -240 0 -187 1 -201 20 -220 19 -19 33 -20 420 -20 387 0 401 1 420 20 19
19 20 33 20 200 l0 180 328 0 c503 -1 3717 30 3800 36 108 8 112 14 112 164 0
150 -4 156 -112 164 -100 7 -3345 37 -4020 36 -534 0 -548 0 -568 -20z m293
-262 c4 -66 7 -174 7 -240 l0 -118 -80 0 -80 0 0 240 0 240 73 0 74 0 6 -122z
m397 82 l0 -40 -115 0 -115 0 0 40 0 40 115 0 115 0 0 -40z m2298 13 c386 -3
699 -9 696 -12 -6 -6 -1877 -29 -2471 -30 l-353 -1 0 32 0 31 713 -6 c391 -4
1028 -10 1415 -14z m-3008 -373 l0 -80 -120 0 -120 0 0 80 0 80 120 0 120 0 0
-80z"/>
</g>
</svg>
